<?xml version="1.0" encoding="UTF-8" standalone="no"?>
<!-- Created with Inkscape (http://www.inkscape.org/) -->

<svg
   xmlns:dc="http://purl.org/dc/elements/1.1/"
   xmlns:cc="http://creativecommons.org/ns#"
   xmlns:rdf="http://www.w3.org/1999/02/22-rdf-syntax-ns#"
   xmlns:svg="http://www.w3.org/2000/svg"
   xmlns="http://www.w3.org/2000/svg"
   xmlns:xlink="http://www.w3.org/1999/xlink"
   xmlns:sodipodi="http://sodipodi.sourceforge.net/DTD/sodipodi-0.dtd"
   xmlns:inkscape="http://www.inkscape.org/namespaces/inkscape"
   width="600"
   height="600"
   viewBox="0 0 158.75 158.75"
   version="1.1"
   id="svg8"
   inkscape:version="0.92.2 2405546, 2018-03-11"
   sodipodi:docname="trunk.svg">
  <defs
     id="defs2">
    <linearGradient
       id="linearGradient1121"
       inkscape:collect="always">
      <stop
         id="stop1117"
         offset="0"
         style="stop-color:#7fe2ff;stop-opacity:1" />
      <stop
         id="stop1119"
         offset="1"
         style="stop-color:#c2fce7;stop-opacity:1" />
    </linearGradient>
    <linearGradient
       inkscape:collect="always"
       id="linearGradient958">
      <stop
         style="stop-color:#39b5f2;stop-opacity:1"
         offset="0"
         id="stop954" />
      <stop
         style="stop-color:#00fcc2;stop-opacity:1"
         offset="1"
         id="stop956" />
    </linearGradient>
    <linearGradient
       inkscape:collect="always"
       xlink:href="#linearGradient958"
       id="linearGradient960"
       x1="113.52695"
       y1="234.2287"
       x2="40.467453"
       y2="165.17245"
       gradientUnits="userSpaceOnUse" />
    <linearGradient
       gradientTransform="translate(6.2804067,-123.75996)"
       inkscape:collect="always"
       xlink:href="#linearGradient1121"
       id="linearGradient960-0"
       x1="113.52695"
       y1="234.2287"
       x2="40.467453"
       y2="165.17245"
       gradientUnits="userSpaceOnUse" />
    <linearGradient
       gradientTransform="translate(-4.7829221,-233.91562)"
       inkscape:collect="always"
       xlink:href="#linearGradient1121"
       id="linearGradient960-0-7"
       x1="113.52695"
       y1="234.2287"
       x2="40.467453"
       y2="165.17245"
       gradientUnits="userSpaceOnUse" />
    <filter
       inkscape:collect="always"
       style="color-interpolation-filters:sRGB"
       id="filter1187"
       x="-0.17692945"
       width="1.3538589"
       y="-0.25113381"
       height="1.5022676">
      <feGaussianBlur
         inkscape:collect="always"
         stdDeviation="5.3720967"
         id="feGaussianBlur1189" />
    </filter>
    <clipPath
       clipPathUnits="userSpaceOnUse"
       id="clipPath1206">
      <path
         style="fill:#b3a8a8;fill-opacity:1;stroke:none;stroke-width:0.26458332px;stroke-linecap:butt;stroke-linejoin:miter;stroke-opacity:1"
         d="m 75.273175,-72.874254 c -3.594655,2.326251 -8.179408,7.259391 -9.898107,17.625279 -2.993417,18.05405 3.742126,29.60674 3.975989,36.71611 0.187071,5.687002 -5.074981,12.2299019 -12.348089,7.99796 -5.375378,-3.127708 -5.284885,-6.267418 -5.846154,-7.623828 1.216078,-4.77075 4.757878,-10.34651 -0.374652,-11.13213 -4.018878,-0.61514 -6.080083,3.040319 -7.670335,6.127279 -1.590254,3.086971 -2.338874,4.116031 -2.338874,4.116031 0,0 -3.554317,0.935638 -3.460771,2.900068 0.09354,1.96445 2.057699,3.834932 5.004345,3.74137 1.730571,1.683801 3.180749,10.2898895 12.25455,14.4058404 9.073804,4.1159509 18.100604,2.1517107 23.900352,-1.77715069 5.799749,-3.92885881 8.0448,-7.01582921 9.822141,-14.49936771 1.777344,-7.483552 1.560814,-14.256782 2.338932,-20.57967 0.587272,-4.77207 3.694721,-6.26745 6.922,-6.781972 2.777488,-0.44278 7.015788,0.60788 9.915668,3.97547 1.35886,1.578042 4.56397,4.220472 7.5892,6.587202 v -37.035991 c 0,-2.63842 -2.12407,-4.7625 -4.7625,-4.7625 z"
         id="path1208"
         inkscape:connector-curvature="0"
         sodipodi:nodetypes="cssscsscccsssscccssc" />
    </clipPath>
    <linearGradient
       gradientTransform="translate(1.9522738,145.12602)"
       inkscape:collect="always"
       xlink:href="#linearGradient958"
       id="linearGradient960-4"
       x1="113.52695"
       y1="234.2287"
       x2="40.467453"
       y2="165.17245"
       gradientUnits="userSpaceOnUse" />
  </defs>
  <sodipodi:namedview
     id="base"
     pagecolor="#ffffff"
     bordercolor="#666666"
     borderopacity="1.0"
     inkscape:pageopacity="0.0"
     inkscape:pageshadow="2"
     inkscape:zoom="0.70710678"
     inkscape:cx="747.67879"
     inkscape:cy="-600.69627"
     inkscape:document-units="px"
     inkscape:current-layer="layer1"
     showgrid="false"
     units="px"
     inkscape:window-width="2560"
     inkscape:window-height="1440"
     inkscape:window-x="0"
     inkscape:window-y="0"
     inkscape:window-maximized="1"
     inkscape:snap-global="false">
    <inkscape:grid
       type="xygrid"
       id="grid826" />
  </sodipodi:namedview>
  <metadata
     id="metadata5">
    <rdf:RDF>
      <cc:Work
         rdf:about="">
        <dc:format>image/svg+xml</dc:format>
        <dc:type
           rdf:resource="http://purl.org/dc/dcmitype/StillImage" />
        <dc:title></dc:title>
      </cc:Work>
    </rdf:RDF>
  </metadata>
  <g
     inkscape:label="Layer 1"
     inkscape:groupmode="layer"
     id="layer1"
     transform="translate(0,-138.24999)">
    <g
       id="g1354"
       transform="translate(-60.616734,200.18487)">
      <rect
         ry="4.7624998"
         y="161.04132"
         x="36.400902"
         height="79.699768"
         width="83.441544"
         id="rect904"
         style="fill:url(#linearGradient960);fill-opacity:1;stroke:none;stroke-width:0.26458332" />
      <path
         sodipodi:nodetypes="cssscsscccsssscccssc"
         inkscape:connector-curvature="0"
         id="path847"
         transform="matrix(0.26458333,0,0,0.26458333,0,138.24999)"
         d="m 302.57422,86.140625 c -13.5861,8.792116 -30.9143,27.437075 -37.41016,66.615235 -11.31371,68.23578 14.14346,111.89947 15.02735,138.76953 0.70704,21.49417 -19.18103,46.22325 -46.66993,30.22852 -20.3164,-11.82131 -19.97437,-23.68794 -22.0957,-28.81446 4.5962,-18.03122 17.98252,-39.10498 -1.41601,-42.07422 -15.18946,-2.32497 -22.97984,11.49096 -28.99024,23.15821 -6.01041,11.66729 -8.83984,15.55664 -8.83984,15.55664 0,0 -13.43364,3.53632 -13.08008,10.96094 0.35354,7.42465 7.77713,14.4942 18.91406,14.14062 6.54074,6.36397 12.02173,38.89092 46.31641,54.44727 34.29468,15.55634 68.41172,8.13243 90.33203,-6.7168 21.92031,-14.84924 30.40554,-26.51654 37.12305,-54.80078 6.71752,-28.28429 5.89915,-53.8839 8.84007,-77.78144 2.2196,-18.03619 13.96429,-23.68802 26.16188,-25.63262 10.4976,-1.6735 26.51639,2.29749 37.47656,15.02539 5.13584,5.96421 17.24963,15.9514 28.6836,24.89648 V 104.14062 c 0,-9.971995 -8.028,-17.999995 -18,-17.999995 z"
         style="fill:#ffffff;fill-opacity:1;stroke:none;stroke-width:0.99999994px;stroke-linecap:butt;stroke-linejoin:miter;stroke-opacity:1" />
      <path
         sodipodi:nodetypes="csssscscsccsccsccccccscsscscsccscccccscsccccccsccccccccccccccsscsssccccsscccc"
         inkscape:connector-curvature="0"
         id="path851"
         transform="matrix(0.26458333,0,0,0.26458333,0,138.24999)"
         d="m 428.9668,86.140625 c 1.30541,9.479064 2.20263,25.448365 -3.7168,38.109375 -9,19.25 -30.24999,35.5 -35.25,35.5 -5.00001,0 -5.00001,0.74997 -11.5,-13.25 -6.5,-14.00001 -28,-39.74999 -30,-41.75 -2,-2.00001 -8.25,0.5 -8.25,0.5 0,0 12.25,22.75001 18,35.25 5.75,12.49999 14.9149,23.0851 10,28 -8.75,8.75002 -16.25,2.75 -23.5,-7.5 -7.25,-10.25 -20,-20.75 -20,-20.75 0,0 10.91539,20.16804 17,30.75 5.46617,9.50638 12.21367,15.35739 7.25,20.5 -12.45277,12.90168 -30.28018,-20.04291 -59.75,-40.75 l -2.5,2.75 c 0,0 53.43245,47.98762 53.5,53.75 0.15024,12.81611 -13.2106,2.61956 -18.75,5.25 4,7.99997 13.42798,2.55091 13.75,10.25 0.45633,10.90987 -16.54875,6.62215 -20.75,6.5 -13.79878,-0.46775 -33.5,-3 -33.5,-3 l -0.5,5.5 c 0,0 21.25,3.74997 33,4.25 11.75,0.49999 23.25,-0.75001 24,1.25 0.75,2.00001 -2,11.75003 -5,16.75 -7.25,0.50003 -24.25,-2.5 -23.5,1.75 0.75,4.25 21.25,7.75002 21.75,14 0.5,6.25002 -2,15.5 -2,15.5 0,0 -26.25,2.5 -33.5,-0.5 -7.25,-3 6.25,4.74997 10,5.75 3.75,0.99999 14,2.25 15,3.5 1,1.25 6.25,8.50002 3.5,17.25 -2.75,8.75002 -6,18.5 -8.75,19.75 -2.75,1.24997 -7.25,3.25001 -18,-5.25 -10.75,-8.50001 -12,-10.5 -12,-10.5 l -4,6.5 c 0,0 4.25,5.25002 10,14.5 5.75,9.25002 12.25,11.75002 4.25,16.25 -8,4.50002 -24.25,7.24998 -30,7.5 -5.75,0.24983 -10.25,-5.49998 -11.25,-11.75 -0.39966,-2.49788 -0.43358,-5.21694 -0.33789,-7.60352 -0.91276,3.6594 -3.08366,8.06037 -8.16211,10.85352 -10,5.50001 -7.13283,2.55153 -9.5,-3.75 -1.86674,-4.96932 -1.5,-6 -2.75,-13.75 0,0 -1.25,12.24997 -12.5,10.25 -21.24193,-6.16169 -21.29081,-25.87374 -15.5,-40.75 1.889,-4.84055 4.27413,-8.43992 6.27148,-10.90625 1.88492,-7.2375 5.10507,-14.92279 7.05469,-21.73437 -3.12185,0.25704 -7.15137,1.01008 -11.57617,2.89062 -10,4.25 -19.25,10.49998 -22.75,16.25 -3.5,5.74998 -6.25,14 -12.25,12.25 -0.36402,-0.10617 -0.68582,-0.2585 -0.9707,-0.44727 0.45378,-0.67893 0.94697,-1.50527 1.4707,-2.55273 2.25,-4.49998 9.5,-13.75002 16.5,-21.25 7,-7.50002 12,-12.50003 16,-16.25 4,-3.75001 -5,-3 -5,-3 0,0 -4.5,2.25002 -9.5,8.5 -5,6.25002 -16.25,23.49998 -17.5,26.75 -0.68774,1.78812 -1.87424,4.53691 -2.89844,6.87305 -1.69679,-2.46416 -0.83669,-7.32421 0.0547,-10.64844 -3.73233,1.32103 -11.32386,4.70491 -11.05664,10.31641 0.35354,7.42465 7.77713,14.4942 18.91406,14.14062 0.77529,0.75434 1.5368,1.88701 2.33203,3.30469 0.78268,0.74631 1.72461,1.71194 2.9043,3.01367 7.25,8.00001 21,27.5 32.75,35.25 11.75,7.75 16,13.24999 39.25,14 31.72458,0.28082 64.17167,-5.8447 82.01777,-43.90901 6.63907,-14.16062 8.65901,-34.15598 9.65901,-47.65596 1,-13.50002 2.36589,-38.99689 4.82322,-55.43503 2.68235,-17.94334 24.5183,-33.2107 46.5,-30.25 12.91921,1.84561 21.24999,9.74998 23.75,17.25 0.97503,2.92511 1.79049,6.21605 2.43164,9.16016 5.32389,6.10049 17.33409,15.9944 28.51563,24.73632 V 104.14062 c 0,-9.971995 -8.028,-17.999995 -18,-17.999995 z M 253.66211,340.64648 C 254.54667,337.10015 254.25,334.25 254.25,334.25 c 0,0 -0.44415,2.81158 -0.58789,6.39648 z"
         style="fill:#8afff0;fill-opacity:1;stroke:none;stroke-width:0.99999994px;stroke-linecap:butt;stroke-linejoin:miter;stroke-opacity:1" />
      <path
         transform="matrix(0.26458333,0,0,0.26458333,0,138.24999)"
         sodipodi:nodetypes="cscsscc"
         inkscape:connector-curvature="0"
         id="path849"
         d="M 452.94727,199.41016 C 430.94065,217.8531 383.24379,252.57909 327.5,260.75 250.75,272.00003 232,226.25 232,226.25 c 0,0 2.79776,22.81896 19.5,39.75 18.25,18.49999 53.68056,34.34436 132.22056,28.57538 39.87349,-2.92882 62.76001,-13.02125 69.22671,-19.84338 z"
         style="fill:#c8ffff;fill-opacity:1;stroke:none;stroke-width:0.99999994px;stroke-linecap:butt;stroke-linejoin:miter;stroke-opacity:1" />
    </g>
    <g
       id="g1268"
       transform="translate(-66.603574,495.03662)">
      <rect
         ry="4.7624998"
         y="37.281357"
         x="42.681309"
         height="79.699768"
         width="83.441551"
         id="rect904-7"
         style="fill:url(#linearGradient960-0);fill-opacity:1;stroke:none;stroke-width:0.26458332" />
      <path
         sodipodi:nodetypes="cssscsscccsssscccssc"
         inkscape:connector-curvature="0"
         id="path847-5"
         d="m 86.336502,37.281401 c -3.594655,2.32625 -8.179408,7.25939 -9.898105,17.62528 -2.993419,18.05405 3.742124,29.60674 3.975987,36.71611 0.187071,5.687 -5.074981,12.229899 -12.348087,7.99796 -5.37538,-3.12772 -5.284885,-6.26743 -5.846154,-7.62383 1.216078,-4.77076 4.757876,-10.34652 -0.374652,-11.13213 -4.018878,-0.61515 -6.080083,3.04031 -7.670335,6.12727 -1.590254,3.08697 -2.338874,4.11603 -2.338874,4.11603 0,0 -3.554317,0.93565 -3.460771,2.90008 0.09354,1.96444 2.057699,3.83493 5.004345,3.74137 1.730571,1.6838 3.180749,10.289889 12.25455,14.405839 9.073802,4.11595 18.100602,2.15171 23.900351,-1.77715 5.799748,-3.92886 8.044799,-7.01583 9.82214,-14.499369 1.777343,-7.48355 1.560813,-14.25678 2.338933,-20.57967 0.58727,-4.77208 3.69472,-6.26746 6.922,-6.78197 2.77749,-0.44278 7.01579,0.60788 9.91567,3.97547 1.35886,1.57803 4.56397,4.22047 7.5892,6.58719 v -37.03598 c 0,-2.63842 -2.12407,-4.7625 -4.7625,-4.7625 z"
         style="fill:#b3a8a8;fill-opacity:1;stroke:none;stroke-width:0.26458332px;stroke-linecap:butt;stroke-linejoin:miter;stroke-opacity:1" />
      <path
         sodipodi:nodetypes="csssscscsccsccsccccccscsscscsccscccccscsccccccsccccccccccccccsscsssccccsscccc"
         inkscape:connector-curvature="0"
         id="path851-9"
         d="m 119.77787,37.281401 c 0.34539,2.508 0.58278,6.73322 -0.9834,10.08311 -2.38125,5.09323 -8.00364,9.39271 -9.32656,9.39271 -1.32292,0 -1.32292,0.19843 -3.04271,-3.50573 -1.71979,-3.70417 -7.408335,-10.51719 -7.937502,-11.04636 -0.529166,-0.52917 -2.182812,0.13229 -2.182812,0.13229 0,0 3.241146,6.01928 4.762504,9.32657 1.52135,3.30729 3.94623,6.10793 2.64583,7.40833 -2.31511,2.31511 -4.29948,0.7276 -6.217709,-1.98438 -1.918229,-2.71197 -5.291667,-5.4901 -5.291667,-5.4901 0,0 2.88803,5.33613 4.497917,8.13594 1.446257,2.51523 3.231533,4.06331 1.918229,5.42396 -3.294795,3.41357 -8.011631,-5.30302 -15.808854,-10.78177 l -0.661459,0.7276 c 0,0 14.137336,12.69672 14.155209,14.22135 0.03975,3.39093 -3.495305,0.6931 -4.960938,1.38907 1.058334,2.11665 3.55282,0.67492 3.638021,2.71197 0.120737,2.88657 -4.378523,1.75212 -5.490104,1.7198 -3.650927,-0.12376 -8.863542,-0.79375 -8.863542,-0.79375 l -0.132291,1.4552 c 0,0 5.622395,0.99218 8.73125,1.12448 3.108854,0.13229 6.151562,-0.19844 6.35,0.33073 0.198437,0.52917 -0.529167,3.10887 -1.322917,4.43177 -1.918229,0.1323 -6.416146,-0.66145 -6.217708,0.46302 0.198437,1.12448 5.622395,2.05053 5.754687,3.70417 0.132292,1.65365 -0.529167,4.10104 -0.529167,4.10104 0,0 -6.945312,0.66146 -8.863541,-0.13229 -1.918229,-0.79375 1.653646,1.25676 2.645833,1.52136 0.992188,0.26458 3.704167,0.59531 3.96875,0.92604 0.264583,0.33073 1.653646,2.24896 0.926042,4.56406 -0.727604,2.31511 -1.5875,4.894789 -2.315104,5.225519 -0.727605,0.33072 -1.91823,0.8599 -4.7625,-1.38906 -2.844271,-2.248959 -3.175,-2.778129 -3.175,-2.778129 l -1.058334,1.71979 c 0,0 1.124479,1.389069 2.645834,3.836459 1.521354,2.4474 3.241145,3.10886 1.124479,4.29948 -2.116667,1.19063 -6.416146,1.91823 -7.9375,1.98438 -1.521354,0.0661 -2.711979,-1.45521 -2.976563,-3.10886 -0.105743,-0.66089 -0.114718,-1.38031 -0.0894,-2.01176 -0.241501,0.96821 -0.815885,2.13264 -2.159558,2.87166 -2.645834,1.45521 -1.887228,0.67509 -2.513543,-0.99219 -0.493908,-1.3148 -0.396875,-1.5875 -0.727604,-3.63802 0,0 -0.330729,3.24114 -3.307291,2.71198 -5.620261,-1.63028 -5.633194,-6.845759 -4.101042,-10.781769 0.499798,-1.28073 1.130864,-2.23306 1.659329,-2.88561 0.498718,-1.91492 1.350716,-3.94832 1.866553,-5.75056 -0.825989,0.068 -1.892133,0.26726 -3.062861,0.76481 -2.645834,1.12448 -5.093229,2.77812 -6.019271,4.29948 -0.926042,1.52135 -1.653646,3.70417 -3.241146,3.24115 -0.09631,-0.0281 -0.181457,-0.0684 -0.256831,-0.11834 0.120062,-0.17963 0.250552,-0.39827 0.389123,-0.67541 0.595312,-1.19062 2.513541,-3.63803 4.365625,-5.6224 1.852083,-1.98438 3.175,-3.3073 4.233333,-4.29948 1.058333,-0.99219 -1.322917,-0.79375 -1.322917,-0.79375 0,0 -1.190625,0.59532 -2.513541,2.24896 -1.322917,1.65365 -4.29948,6.21771 -4.630209,7.07761 -0.181964,0.4731 -0.495892,1.20039 -0.766879,1.81849 -0.448942,-0.65197 -0.221374,-1.93786 0.01447,-2.8174 -0.987512,0.34952 -2.996104,1.24484 -2.925402,2.72955 0.09354,1.96444 2.057699,3.83493 5.004345,3.74137 0.205128,0.19959 0.406611,0.49928 0.617016,0.87437 0.207084,0.19746 0.456303,0.45295 0.768429,0.79737 1.918229,2.116669 5.55625,7.276039 8.665104,9.326559 3.108855,2.05052 4.233334,3.50573 10.384897,3.70417 8.393795,0.0743 16.978754,-1.54641 21.700535,-11.6176 1.756587,-3.746659 2.29103,-9.037099 2.555613,-12.608969 0.264583,-3.57188 0.625975,-10.31793 1.276144,-14.66718 0.709706,-4.74751 6.487136,-8.787 12.303126,-8.00365 3.41821,0.48832 5.62239,2.57968 6.28386,4.56406 0.25797,0.77394 0.47373,1.64467 0.64337,2.42363 1.40861,1.61409 4.58631,4.23185 7.54476,6.54482 v -37.04322 c 0,-2.63842 -2.12408,-4.7625 -4.7625,-4.7625 z M 73.395173,104.61941 c 0.23404,-0.9383 0.155546,-1.6924 0.155546,-1.6924 0,0 -0.117515,0.74389 -0.155546,1.6924 z"
         style="fill:#7e92a6;fill-opacity:1;stroke:none;stroke-width:0.26458332px;stroke-linecap:butt;stroke-linejoin:miter;stroke-opacity:1" />
      <ellipse
         transform="rotate(-9.5359021)"
         ry="6.6807284"
         rx="3.5718749"
         cy="79.515144"
         cx="41.303211"
         id="path872-2"
         style="fill:#ffffff;fill-opacity:1;stroke:none;stroke-width:0.26458332" />
      <ellipse
         transform="rotate(15.264403)"
         ry="2.7010701"
         rx="1.9843948"
         cy="42.169273"
         cx="71.361481"
         id="path872-6-2"
         style="fill:#ffffff;fill-opacity:1;stroke:none;stroke-width:0.26458332" />
      <ellipse
         transform="rotate(-14.753032)"
         ry="1.7380402"
         rx="1.1489896"
         cy="65.801758"
         cx="36.089611"
         id="path872-6-7-8"
         style="fill:#ffffff;fill-opacity:1;stroke:none;stroke-width:0.26458332" />
      <path
         sodipodi:nodetypes="cscsscc"
         inkscape:connector-curvature="0"
         id="path849-9"
         d="m 126.1227,67.250631 c -5.82258,4.8797 -18.44237,14.06761 -33.191252,16.2295 -20.306771,2.97657 -25.267709,-9.12812 -25.267709,-9.12812 0,0 0.740241,6.03751 5.159376,10.51718 4.828646,4.89479 14.202981,9.08695 34.983355,7.56057 10.54986,-0.77491 16.60525,-3.4452 18.31623,-5.25022 z"
         style="fill:#f7e7cd;fill-opacity:1;stroke:none;stroke-width:0.26458332px;stroke-linecap:butt;stroke-linejoin:miter;stroke-opacity:1" />
    </g>
    <g
       id="g1365"
       transform="translate(-55.752426,519.73232)">
      <rect
         ry="4.7624998"
         y="-72.874306"
         x="31.617979"
         height="79.699768"
         width="83.441559"
         id="rect904-7-1"
         style="fill:url(#linearGradient960-0-7);fill-opacity:1;stroke:none;stroke-width:0.26458332" />
      <path
         sodipodi:nodetypes="cssscsscccsssscccssc"
         inkscape:connector-curvature="0"
         id="path847-5-2"
         d="m 75.273173,-72.874261 c -3.594655,2.32625 -8.179408,7.25939 -9.898105,17.62528 -2.993419,18.05405 3.742124,29.60674 3.975987,36.71611 0.187071,5.687 -5.074981,12.2298999 -12.348087,7.99796 -5.37538,-3.12771 -5.284886,-6.26742 -5.846155,-7.62383 1.216079,-4.77075 4.757877,-10.34651 -0.374651,-11.13213 -4.018879,-0.61514 -6.080084,3.04032 -7.670336,6.12728 -1.590254,3.08697 -2.338874,4.11603 -2.338874,4.11603 0,0 -3.554317,0.93564 -3.460771,2.90007 0.09354,1.96445 2.057699,3.83493 5.004345,3.74137 1.730571,1.6838 3.180749,10.2898899 12.254551,14.4058399 9.073802,4.11595 18.100602,2.15171 23.900351,-1.77715004 5.799748,-3.92885996 8.044799,-7.01582996 9.82214,-14.49936986 1.777344,-7.48355 1.560814,-14.25678 2.338932,-20.57967 0.587272,-4.77207 3.694721,-6.26745 6.922,-6.78197 2.77749,-0.44278 7.01579,0.60788 9.91567,3.97547 1.35886,1.57804 4.56397,4.22047 7.5892,6.5872 v -37.03599 c 0,-2.63842 -2.12407,-4.7625 -4.7625,-4.7625 z"
         style="fill:#b3a8a8;fill-opacity:1;stroke:none;stroke-width:0.26458332px;stroke-linecap:butt;stroke-linejoin:miter;stroke-opacity:1" />
      <path
         clip-path="url(#clipPath1206)"
         sodipodi:nodetypes="csssssc"
         inkscape:connector-curvature="0"
         id="path1165"
         d="m 41.533684,-10.480235 c 2.33861,4.7707599 8.119697,8.3585711 14.312284,11.6930414 7.296456,3.9288617 13.114107,1.2874261 20.11203,-0.93544343 7.951269,-2.52569697 9.073801,-9.16734627 9.728613,-13.37683997 0.654809,-4.209494 1.922926,-22.560233 3.232549,-27.798718 0.836687,-3.346741 8.241304,-5.84125 14.22814,-5.467071 5.98684,0.374176 11.25742,8.195906 11.25742,8.195906"
         style="fill:none;stroke:#7d8b8e;stroke-width:7.96500015;stroke-linecap:butt;stroke-linejoin:miter;stroke-miterlimit:4;stroke-dasharray:none;stroke-opacity:1;filter:url(#filter1187)" />
      <path
         sodipodi:nodetypes="csssscscsccsccsccccccscsscscsccscccccscsccccccsccccccccccccccsscsssccccsscccc"
         inkscape:connector-curvature="0"
         id="path851-9-9"
         d="m 108.71454,-72.874261 c 0.34539,2.508 0.58278,6.73322 -0.9834,10.08311 -2.38125,5.09323 -8.003638,9.39271 -9.32656,9.39271 -1.322919,0 -1.322919,0.19843 -3.042708,-3.50573 -1.719792,-3.70417 -7.408336,-10.51719 -7.937503,-11.04636 -0.529166,-0.52917 -2.182812,0.13229 -2.182812,0.13229 0,0 3.241146,6.01928 4.762505,9.32657 1.521349,3.30729 3.946229,6.10793 2.645828,7.40833 -2.315109,2.31511 -4.299479,0.7276 -6.217708,-1.98438 -1.918229,-2.71197 -5.291667,-5.4901 -5.291667,-5.4901 0,0 2.88803,5.33613 4.497917,8.13594 1.446257,2.51523 3.231533,4.06331 1.918229,5.42396 -3.294795,3.41358 -8.011631,-5.30302 -15.808854,-10.78177 l -0.661459,0.7276 c 0,0 14.137336,12.69672 14.155209,14.22136 0.03975,3.39092 -3.495305,0.6931 -4.960938,1.38906 1.058334,2.11665 3.55282,0.67492 3.638021,2.71197 0.120737,2.88657 -4.378523,1.75213 -5.490104,1.7198 -3.650927,-0.12375 -8.863542,-0.79375 -8.863542,-0.79375 l -0.132291,1.4552 c 0,0 5.622395,0.99218 8.73125,1.12448 3.108854,0.1323 6.151562,-0.19844 6.35,0.33074 0.198437,0.52917 -0.529167,3.10887 -1.322917,4.43176 -1.918229,0.1323 -6.416146,-0.66145 -6.217708,0.46302 0.198437,1.12448 5.622395,2.05053 5.754687,3.70417 0.132292,1.65366 -0.529167,4.10105 -0.529167,4.10105 0,0 -6.945312,0.66145 -8.863541,-0.1323 -1.918229,-0.79375 1.653646,1.25676 2.645833,1.52136 0.992188,0.26458 3.704167,0.59532 3.96875,0.92605 0.264583,0.33072 1.653646,2.24895 0.926042,4.56406 -0.727604,2.3151 -1.5875,4.8947799 -2.315104,5.2255099 -0.727605,0.33072 -1.91823,0.8599 -4.7625,-1.38906 -2.844271,-2.2489499 -3.175,-2.7781199 -3.175,-2.7781199 l -1.058334,1.71978 c 0,0 1.124479,1.3890699 2.645834,3.8364599 1.521354,2.4474 3.241145,3.10887 1.124479,4.29948 -2.116667,1.19064 -6.416146,1.91822996 -7.9375,1.98438996 -1.521354,0.0661 -2.711979,-1.45521996 -2.976563,-3.10886996 -0.105743,-0.66089 -0.114718,-1.38031 -0.0894,-2.01176 -0.241501,0.96821 -0.815885,2.13264 -2.159558,2.87166 -2.645834,1.45522 -1.887228,0.67509 -2.513544,-0.99219 -0.493907,-1.3148 -0.396875,-1.5875 -0.727603,-3.63802 0,0 -0.330729,3.24114 -3.307292,2.71199 -5.620261,-1.63029 -5.633194,-6.8457699 -4.101042,-10.7817799 0.499798,-1.28072 1.130865,-2.23306 1.65933,-2.88561 0.498717,-1.91491 1.350715,-3.94832 1.866552,-5.75056 -0.825989,0.068 -1.892133,0.26727 -3.06286,0.76481 -2.645835,1.12448 -5.09323,2.77812 -6.019272,4.29948 -0.926042,1.52136 -1.653646,3.70418 -3.241146,3.24116 -0.09631,-0.0281 -0.181457,-0.0684 -0.256831,-0.11835 0.120062,-0.17963 0.250552,-0.39826 0.389123,-0.6754 0.595312,-1.19062 2.513541,-3.63804 4.365625,-5.62241 1.852083,-1.98438 3.175001,-3.3073 4.233333,-4.29948 1.058333,-0.99219 -1.322917,-0.79375 -1.322917,-0.79375 0,0 -1.190625,0.59533 -2.513541,2.24897 -1.322917,1.65364 -4.29948,6.2177 -4.630209,7.07761 -0.181964,0.47309 -0.495892,1.20039 -0.766879,1.81848 -0.448942,-0.65197 -0.221374,-1.93785 0.01447,-2.8174 -0.987512,0.34952 -2.996104,1.24485 -2.925402,2.72955 0.09354,1.96445 2.057699,3.83493 5.004345,3.74137 0.205128,0.1996 0.406611,0.49928 0.617016,0.87438 0.207084,0.19745 0.456303,0.45294 0.768429,0.79737 1.918229,2.1166599 5.55625,7.2760299 8.665104,9.3265599 3.108855,2.05050996 4.233335,3.50572 10.384898,3.70416 8.393796,0.0743 16.978755,-1.54641004 21.700535,-11.6176 1.756588,-3.7466499 2.29103,-9.0370999 2.555613,-12.6089699 0.264584,-3.57188 0.625976,-10.31793 1.276144,-14.66718 0.709705,-4.7475 6.487136,-8.787 12.303125,-8.00365 3.41821,0.48832 5.62239,2.57969 6.28386,4.56407 0.25797,0.77393 0.47373,1.64466 0.64337,2.42362 1.40861,1.61409 4.58631,4.23186 7.54476,6.54482 v -37.04322 c 0,-2.63842 -2.12408,-4.7625 -4.7625,-4.7625 z M 62.331844,-5.5362511 c 0.23404,-0.9383 0.155546,-1.6924 0.155546,-1.6924 0,0 -0.117515,0.74389 -0.155546,1.6924 z"
         style="fill:#708597;fill-opacity:1;stroke:none;stroke-width:0.26458332px;stroke-linecap:butt;stroke-linejoin:miter;stroke-opacity:1" />
      <ellipse
         transform="rotate(-9.5359021)"
         ry="6.6807284"
         rx="3.5718749"
         cy="-30.9512"
         cx="48.641754"
         id="path872-2-3"
         style="fill:#ffffff;fill-opacity:1;stroke:none;stroke-width:0.26458332" />
      <ellipse
         transform="rotate(15.264403)"
         ry="2.7010701"
         rx="1.9843948"
         cy="-61.187542"
         cx="31.687361"
         id="path872-6-2-1"
         style="fill:#ffffff;fill-opacity:1;stroke:none;stroke-width:0.26458332" />
      <ellipse
         transform="rotate(-14.753032)"
         ry="1.7380402"
         rx="1.1489896"
         cy="-43.539658"
         cx="53.442493"
         id="path872-6-7-8-9"
         style="fill:#ffffff;fill-opacity:1;stroke:none;stroke-width:0.26458332" />
      <path
         sodipodi:nodetypes="cscsscc"
         inkscape:connector-curvature="0"
         id="path849-9-4"
         d="m 115.05937,-42.905031 c -5.82258,4.8797 -18.44237,14.06761 -33.191251,16.2295 -20.306771,2.97657 -25.267709,-9.12812 -25.267709,-9.12812 0,0 0.740241,6.03752 5.159376,10.51718 4.828646,4.8948 14.202981,9.08695 34.983354,7.56058 10.54986,-0.77492 16.60525,-3.4452 18.31623,-5.25023 z"
         style="fill:#f7e7cd;fill-opacity:1;stroke:none;stroke-width:0.26458332px;stroke-linecap:butt;stroke-linejoin:miter;stroke-opacity:1" />
      <path
         id="path1210"
         transform="matrix(0.26458333,0,0,0.26458333,0,138.24999)"
         d="m 434.86914,-642.82422 c -18.39127,22.44841 -54.54324,41.15659 -107.89453,43.35352 17.64362,1.12765 30.85404,1.38986 40.78516,1.15625 -21.42241,2.11341 -51.72939,3.10515 -84.04883,-0.77539 71.64371,15.19806 122.62352,3.60422 151.1582,-15.9961 z m -36.25195,38.86328 c 0.0397,-10e-4 0.079,0.007 0.12109,0.0254 -0.06,0.17337 -0.44382,0.39204 -1.06445,0.63672 0.52091,-0.39715 0.73763,-0.65658 0.94336,-0.66211 z"
         style="fill:#d5b7a5;fill-opacity:1;stroke:none;stroke-width:0.99999994px;stroke-linecap:butt;stroke-linejoin:miter;stroke-opacity:1"
         inkscape:connector-curvature="0" />
    </g>
    <g
       id="g1273"
       transform="translate(44.152926,54.629891)">
      <rect
         ry="4.7624998"
         y="306.16733"
         x="38.353176"
         height="79.699768"
         width="83.441551"
         id="rect904-36"
         style="fill:url(#linearGradient960-4);fill-opacity:1;stroke:none;stroke-width:0.26458332" />
      <path
         sodipodi:nodetypes="cssscsscccsssscccssc"
         inkscape:connector-curvature="0"
         id="path847-1"
         d="m 82.008369,306.16738 c -3.594655,2.32625 -8.179408,7.25939 -9.898105,17.62528 -2.993419,18.05405 3.742124,29.60674 3.975987,36.71611 0.187071,5.687 -5.074981,12.2299 -12.348087,7.99796 -5.37538,-3.12772 -5.284885,-6.26743 -5.846154,-7.62383 1.216078,-4.77076 4.757876,-10.34652 -0.374652,-11.13213 -4.018878,-0.61515 -6.080083,3.04031 -7.670335,6.12727 -1.590254,3.08697 -2.338874,4.11603 -2.338874,4.11603 0,0 -3.554317,0.93565 -3.460771,2.90008 0.09354,1.96444 2.057699,3.83493 5.004345,3.74137 1.730571,1.6838 3.180749,10.28989 12.25455,14.40584 9.073802,4.11595 18.100602,2.15171 23.900351,-1.77715 5.799748,-3.92886 8.044799,-7.01583 9.82214,-14.49937 1.777344,-7.48355 1.560817,-14.25678 2.338935,-20.57967 0.587269,-4.77208 3.694721,-6.26746 6.922001,-6.78197 2.77749,-0.44278 7.01579,0.60788 9.91567,3.97547 1.35886,1.57803 4.56396,4.22047 7.5892,6.58719 v -37.03598 c 0,-2.63842 -2.12407,-4.7625 -4.7625,-4.7625 z"
         style="fill:#ffffff;fill-opacity:1;stroke:none;stroke-width:0.26458332px;stroke-linecap:butt;stroke-linejoin:miter;stroke-opacity:1" />
      <path
         sodipodi:nodetypes="cscsscc"
         inkscape:connector-curvature="0"
         id="path849-3"
         d="m 121.79457,336.13661 c -5.82258,4.8797 -18.44238,14.06761 -33.191255,16.2295 -20.306771,2.97657 -25.267709,-9.12812 -25.267709,-9.12812 0,0 0.740241,6.03751 5.159376,10.51718 4.828646,4.89479 14.202981,9.08695 34.983358,7.56057 10.54986,-0.77491 16.60525,-3.4452 18.31623,-5.25022 z"
         style="fill:#ffffff;fill-opacity:1;stroke:none;stroke-width:0.26458332px;stroke-linecap:butt;stroke-linejoin:miter;stroke-opacity:1" />
    </g>
    <g
       id="g1312"
       transform="translate(40.977926,15.471558)">
      <rect
         ry="4.7624998"
         y="432.26511"
         x="41.346592"
         height="79.699768"
         width="83.441551"
         id="rect904-1"
         style="fill:#6c6c6e;fill-opacity:1;stroke:none;stroke-width:0.26458332" />
      <path
         sodipodi:nodetypes="cssscsscccsssscccssc"
         inkscape:connector-curvature="0"
         id="path847-55"
         d="m 85.001787,432.26515 c -3.594655,2.32625 -8.179408,7.25939 -9.898105,17.62528 -2.993419,18.05405 3.742124,29.60674 3.975987,36.71611 0.187071,5.687 -5.074981,12.2299 -12.348087,7.99796 -5.37538,-3.12772 -5.284885,-6.26743 -5.846154,-7.62383 1.216078,-4.77076 4.757876,-10.34652 -0.374652,-11.13213 -4.018878,-0.61515 -6.080083,3.04031 -7.670335,6.12727 -1.590253,3.08697 -2.338873,4.11603 -2.338873,4.11603 0,0 -3.554318,0.93565 -3.460772,2.90008 0.09354,1.96444 2.057699,3.83493 5.004345,3.74137 1.730571,1.6838 3.180749,10.28989 12.25455,14.40584 9.073802,4.11595 18.100602,2.15171 23.900351,-1.77715 5.799748,-3.92886 8.044799,-7.01583 9.82214,-14.49937 1.777344,-7.48355 1.560817,-14.25678 2.338938,-20.57967 0.58727,-4.77208 3.69472,-6.26746 6.92199,-6.78197 2.77749,-0.44278 7.0158,0.60788 9.91568,3.97547 1.35886,1.57803 4.56396,4.22047 7.5892,6.58719 v -37.03598 c 0,-2.63842 -2.12407,-4.7625 -4.7625,-4.7625 z"
         style="fill:#e4e2e1;fill-opacity:1;stroke:none;stroke-width:0.26458332px;stroke-linecap:butt;stroke-linejoin:miter;stroke-opacity:1" />
      <path
         sodipodi:nodetypes="csssscscsccsccsccccccscsscscsccscccccscsccccccsccccccccccccccsscsssccccsscccc"
         inkscape:connector-curvature="0"
         id="path851-4"
         d="m 118.44316,432.26515 c 0.34539,2.508 0.58278,6.73322 -0.98341,10.08311 -2.38125,5.09323 -8.00364,9.39271 -9.32656,9.39271 -1.32292,0 -1.32292,0.19843 -3.04271,-3.50573 -1.71979,-3.70417 -7.40833,-10.51719 -7.937497,-11.04636 -0.529166,-0.52917 -2.182812,0.13229 -2.182812,0.13229 0,0 3.241146,6.01928 4.7625,9.32657 1.521359,3.30729 3.946239,6.10793 2.645829,7.40833 -2.3151,2.31511 -4.299475,0.7276 -6.217704,-1.98438 -1.918229,-2.71197 -5.291667,-5.4901 -5.291667,-5.4901 0,0 2.88803,5.33613 4.497917,8.13594 1.446257,2.51523 3.231533,4.06331 1.918229,5.42396 -3.294795,3.41357 -8.011631,-5.30302 -15.808854,-10.78177 l -0.661459,0.7276 c 0,0 14.137336,12.69672 14.155209,14.22135 0.03975,3.39093 -3.495305,0.6931 -4.960938,1.38907 1.058334,2.11665 3.55282,0.67492 3.638021,2.71197 0.120737,2.88657 -4.378523,1.75212 -5.490104,1.7198 -3.650927,-0.12376 -8.863542,-0.79375 -8.863542,-0.79375 l -0.132291,1.4552 c 0,0 5.622395,0.99218 8.73125,1.12448 3.108854,0.13229 6.151562,-0.19844 6.35,0.33073 0.198437,0.52917 -0.529167,3.10887 -1.322917,4.43177 -1.918229,0.1323 -6.416146,-0.66145 -6.217708,0.46302 0.198437,1.12448 5.622395,2.05053 5.754687,3.70417 0.132292,1.65365 -0.529167,4.10104 -0.529167,4.10104 0,0 -6.945312,0.66146 -8.863541,-0.13229 -1.918229,-0.79375 1.653646,1.25676 2.645833,1.52136 0.992188,0.26458 3.704167,0.59531 3.96875,0.92604 0.264583,0.33073 1.653646,2.24896 0.926042,4.56406 -0.727604,2.31511 -1.5875,4.89479 -2.315104,5.22552 -0.727605,0.33072 -1.91823,0.8599 -4.7625,-1.38906 -2.844271,-2.24896 -3.175,-2.77813 -3.175,-2.77813 l -1.058334,1.71979 c 0,0 1.124479,1.38907 2.645834,3.83646 1.521354,2.4474 3.241145,3.10886 1.124479,4.29948 -2.116667,1.19063 -6.416146,1.91823 -7.9375,1.98438 -1.521354,0.0661 -2.711979,-1.45521 -2.976563,-3.10886 -0.105743,-0.66089 -0.114718,-1.38031 -0.0894,-2.01176 -0.241501,0.96821 -0.815885,2.13264 -2.159558,2.87166 -2.645834,1.45521 -1.887228,0.67509 -2.513543,-0.99219 -0.493908,-1.3148 -0.396875,-1.5875 -0.727604,-3.63802 0,0 -0.330729,3.24114 -3.307291,2.71198 -5.620261,-1.63028 -5.633194,-6.84576 -4.101042,-10.78177 0.499798,-1.28073 1.130864,-2.23306 1.659329,-2.88561 0.498718,-1.91492 1.350716,-3.94832 1.866553,-5.75056 -0.825989,0.068 -1.892133,0.26726 -3.062861,0.76481 -2.645834,1.12448 -5.093229,2.77812 -6.019271,4.29948 -0.926042,1.52135 -1.653646,3.70417 -3.241145,3.24115 -0.09631,-0.0281 -0.181457,-0.0684 -0.256831,-0.11834 0.120062,-0.17963 0.250552,-0.39827 0.389122,-0.67541 0.595313,-1.19062 2.513541,-3.63803 4.365625,-5.6224 1.852083,-1.98438 3.175,-3.3073 4.233333,-4.29948 1.058333,-0.99219 -1.322917,-0.79375 -1.322917,-0.79375 0,0 -1.190625,0.59532 -2.513541,2.24896 -1.322917,1.65365 -4.299479,6.21771 -4.630208,7.07761 -0.181965,0.4731 -0.495893,1.20039 -0.766879,1.81849 -0.448942,-0.65197 -0.221374,-1.93786 0.01447,-2.8174 -0.987512,0.34952 -2.996105,1.24484 -2.925403,2.72955 0.09354,1.96444 2.057699,3.83493 5.004345,3.74137 0.205128,0.19959 0.406611,0.49928 0.617016,0.87437 0.207084,0.19746 0.456303,0.45295 0.768429,0.79737 1.918229,2.11667 5.55625,7.27604 8.665104,9.32656 3.108855,2.05052 4.233334,3.50573 10.384897,3.70417 8.393795,0.0743 16.978754,-1.54641 21.700535,-11.6176 1.756587,-3.74666 2.29103,-9.0371 2.555613,-12.60897 0.264583,-3.57188 0.625975,-10.31793 1.276144,-14.66718 0.709705,-4.74751 6.487141,-8.787 12.303131,-8.00365 3.4182,0.48832 5.62239,2.57968 6.28385,4.56406 0.25798,0.77394 0.47374,1.64467 0.64337,2.42363 1.40862,1.61409 4.58631,4.23185 7.54476,6.54482 v -37.04322 c 0,-2.63842 -2.12407,-4.7625 -4.7625,-4.7625 z m -46.382702,67.33801 c 0.23404,-0.9383 0.155546,-1.6924 0.155546,-1.6924 0,0 -0.117515,0.74389 -0.155546,1.6924 z"
         style="fill:#c4c2be;fill-opacity:1;stroke:none;stroke-width:0.26458332px;stroke-linecap:butt;stroke-linejoin:miter;stroke-opacity:1" />
      <path
         sodipodi:nodetypes="cscsscc"
         inkscape:connector-curvature="0"
         id="path849-7"
         d="m 124.78799,462.23438 c -5.82258,4.8797 -18.44238,14.06761 -33.191257,16.2295 -20.306771,2.97657 -25.267709,-9.12812 -25.267709,-9.12812 0,0 0.740241,6.03751 5.159376,10.51718 4.828646,4.89479 14.202981,9.08695 34.98336,7.56057 10.54986,-0.77491 16.60525,-3.4452 18.31623,-5.25022 z"
         style="fill:#f1f1ef;fill-opacity:1;stroke:none;stroke-width:0.26458332px;stroke-linecap:butt;stroke-linejoin:miter;stroke-opacity:1" />
    </g>
    <g
       id="g1348"
       transform="translate(44.152926,54.629891)">
      <rect
         ry="4.7624998"
         y="477.81259"
         x="37.654224"
         height="79.699768"
         width="83.441551"
         id="rect904-1-5"
         style="fill:#6c6c6e;fill-opacity:1;stroke:none;stroke-width:0.26458332" />
      <path
         sodipodi:nodetypes="cssscsscccsssscccssc"
         inkscape:connector-curvature="0"
         id="path847-55-6"
         d="m 81.309419,477.81265 c -3.594655,2.32625 -8.179408,7.25939 -9.898105,17.62528 -2.993419,18.05405 3.742124,29.60674 3.975987,36.71611 0.187071,5.687 -5.074981,12.2299 -12.348087,7.99796 -5.37538,-3.12772 -5.284885,-6.26743 -5.846154,-7.62383 1.216078,-4.77076 4.757876,-10.34652 -0.374652,-11.13213 -4.018878,-0.61515 -6.080083,3.04031 -7.670335,6.12727 -1.590253,3.08697 -2.338873,4.11603 -2.338873,4.11603 0,0 -3.554318,0.93565 -3.460772,2.90008 0.09354,1.96444 2.057699,3.83493 5.004345,3.74137 1.730571,1.6838 3.180749,10.28989 12.25455,14.40584 9.073802,4.11595 18.100602,2.15171 23.900351,-1.77715 5.799748,-3.92886 8.044799,-7.01583 9.82214,-14.49937 1.777344,-7.48355 1.560817,-14.25678 2.338938,-20.57967 0.58727,-4.77208 3.694718,-6.26746 6.921988,-6.78197 2.77749,-0.44278 7.0158,0.60788 9.91568,3.97547 1.35886,1.57803 4.56396,4.22047 7.5892,6.58719 v -37.03598 c 0,-2.63842 -2.12407,-4.7625 -4.7625,-4.7625 z"
         style="fill:#c4c3c2;fill-opacity:1;stroke:none;stroke-width:0.26458332px;stroke-linecap:butt;stroke-linejoin:miter;stroke-opacity:1" />
      <path
         sodipodi:nodetypes="cscsscc"
         inkscape:connector-curvature="0"
         id="path849-7-3"
         d="m 121.09562,507.78188 c -5.82258,4.8797 -18.44238,14.06761 -33.191255,16.2295 -20.306771,2.97657 -25.267709,-9.12812 -25.267709,-9.12812 0,0 0.740241,6.03751 5.159376,10.51718 4.828646,4.89479 14.202981,9.08695 34.983358,7.56057 10.54986,-0.77491 16.60525,-3.4452 18.31623,-5.25022 z"
         style="fill:#ffffff;fill-opacity:1;stroke:none;stroke-width:0.26458332px;stroke-linecap:butt;stroke-linejoin:miter;stroke-opacity:1" />
    </g>
  </g>
</svg>
